Coordinates
version=1
nRows=8
nColumns=40
inDegrees=yes

Units are S.I. units (second, meters, Newtons, ...)
Angles are in degrees.

endheader
time	pelvis_tilt	pelvis_list	pelvis_rotation	pelvis_tx	pelvis_ty	pelvis_tz	hip_flexion_r	hip_adduction_r	hip_rotation_r	knee_angle_r	knee_angle_r_beta	ankle_angle_r	subtalar_angle_r	mtp_angle_r	hip_flexion_l	hip_adduction_l	hip_rotation_l	knee_angle_l	knee_angle_l_beta	ankle_angle_l	subtalar_angle_l	mtp_angle_l	lumbar_extension	lumbar_bending	lumbar_rotation	arm_flex_r	arm_add_r	arm_rot_r	elbow_flex_r	pro_sup_r	wrist_flex_r	wrist_dev_r	arm_flex_l	arm_add_l	arm_rot_l	elbow_flex_l	pro_sup_l	wrist_flex_l	wrist_dev_l
      5.16500019	    -16.73705373	     -6.29242014	     14.94075139	     -1.42169089	      0.93011594	      0.26613705	     72.18294865	     -7.80695692	     -3.36603547	     67.41492621	     67.41492621	      4.97578035	      0.00000000	      0.00000000	     -9.72447208	    -11.33483889	      9.67938019	     23.84945922	     23.84945922	    -20.30363742	      0.00000000	      0.00000000	    -16.12195649	     11.81189537	    -10.93482102	    -67.51207563	     -7.11977293	    -31.31256336	     75.95866053	     87.05686355	      0.00000000	      0.00000000	     73.76793719	    -15.64641275	      1.63684400	    127.81866895	     33.66293134	      0.00000000	      0.00000000
      5.17000019	    -16.29599225	     -6.07572399	     14.33020040	     -1.38713467	      0.93356352	      0.26539170	     70.46743930	     -7.56622963	     -3.59869170	     61.40456398	     61.40456398	      3.31829425	      0.00000000	      0.00000000	    -11.43287272	    -11.05700035	     10.20909075	     24.10262348	     24.10262348	    -22.62579664	      0.00000000	      0.00000000	    -16.35555225	     11.94480929	    -10.61510912	    -67.24378036	     -6.75696652	    -32.16003314	     76.26863209	     87.00218809	      0.00000000	      0.00000000	     71.39221353	    -16.89468886	      1.71038628	    129.46016100	     33.79439215	      0.00000000	      0.00000000
      5.17500019	    -15.78738162	     -5.83437692	     13.91499320	     -1.35275521	      0.93729433	      0.26464224	     68.40519943	     -7.44122183	     -3.95369708	     55.19207592	     55.19207592	      1.32406898	      0.00000000	      0.00000000	    -12.82251445	    -10.74632321	     10.87507833	     25.02685909	     25.02685909	    -24.20572367	      0.00000000	      0.00000000	    -16.70237460	     12.07441730	    -10.48515398	    -66.62866630	     -6.49030501	    -32.84643964	     76.55071310	     86.93925479	      0.00000000	      0.00000000	     68.57260445	    -18.25417860	      1.89365149	    130.89799233	     33.91869946	      0.00000000	      0.00000000
      5.18000019	    -15.20293368	     -5.57164894	     13.66855736	     -1.31854599	      0.94124792	      0.26393278	     66.01909202	     -7.39304977	     -4.42658434	     48.84645253	     48.84645253	     -1.00239354	      0.00000000	      0.00000000	    -13.91887072	    -10.42688061	     11.58901716	     26.61279289	     26.61279289	    -25.10417641	      0.00000000	      0.00000000	    -17.17603310	     12.19743151	    -10.52633436	    -65.69195116	     -6.33529792	    -33.33774353	     76.82814972	     86.66775634	      0.00000000	      0.00000000	     65.35293492	    -19.69377614	      2.15451856	    132.06965418	     34.12419400	      0.00000000	      0.00000000
      5.18500019	    -14.54234284	     -5.29009715	     13.55506829	     -1.28449883	      0.94534019	      0.26330392	     63.35280290	     -7.37955525	     -5.00642947	     42.46358915	     42.46358915	     -3.64729413	      0.00000000	      0.00000000	    -14.74831792	    -10.11442435	     12.25451180	     28.81961427	     28.81961427	    -25.43738562	      0.00000000	      0.00000000	    -17.77966918	     12.30805825	    -10.71354433	    -64.46598153	     -6.30764842	    -33.62823098	     77.12036691	     86.35794884	      0.00000000	      0.00000000	     61.77953021	    -21.17408523	      2.45106306	    132.93039951	     34.34925943	      0.00000000	      0.00000000
      5.19000019	    -13.82006647	     -4.98786592	     13.53254652	     -1.25061350	      0.94945373	      0.26278671	     60.48445988	     -7.36603219	     -5.67283991	     36.18189370	     36.18189370	     -6.57557413	      0.00000000	      0.00000000	    -15.32766304	     -9.81163202	     12.78934382	     31.58242888	     31.58242888	    -25.35458866	      0.00000000	      0.00000000	    -18.49926394	     12.39326492	    -11.01657626	    -62.99090600	     -6.40927101	    -33.70826641	     77.45759930	     85.97061080	      0.00000000	      0.00000000	     57.90432271	    -22.65033218	      2.73542370	    133.41838811	     34.85972149	      0.00000000	      0.00000000
      5.19500019	    -13.07058305	     -4.65583522	     13.55671804	     -1.21690715	      0.95343289	      0.26239609	     57.53916135	     -7.33832720	     -6.40446498	     30.20098684	     30.20098684	     -9.70635582	      0.00000000	      0.00000000	    -15.65409140	     -9.50365452	     13.14311868	     34.82686286	     34.82686286	    -25.00468788	      0.00000000	      0.00000000	    -19.29801061	     12.42829250	    -11.40559136	    -61.31110381	     -6.63637951	    -33.57410268	     77.86964207	     85.42326588	      0.00000000	      0.00000000	     53.77806567	    -24.07139097	      2.96825440	    133.54660904	     35.05240483	      0.00000000	      0.00000000
      5.20000019	    -12.34833282	     -4.28118951	     13.57874474	     -1.18341403	      0.95708988	      0.26214878	     54.68889850	     -7.30063597	     -7.19103767	     24.78135129	     24.78135129	    -12.88467626	      0.00000000	      0.00000000	    -15.70337436	     -9.16121319	     13.29347721	     38.47966209	     38.47966209	    -24.50999082	      0.00000000	      0.00000000	    -20.11722236	     12.37840093	    -11.84755593	    -59.47067340	     -6.97549484	    -33.23695699	     78.38366293	     84.73344487	      0.00000000	      0.00000000	     49.45987297	    -25.38285204	      3.09668711	    133.24239322	     35.63750880	      0.00000000	      0.00000000
